<svg width="22" height="20" viewBox="0 0 22 20" fill="none" xmlns="http://www.w3.org/2000/svg">
<path fill-rule="evenodd" clip-rule="evenodd" d="M10.756 1.22453C7.4964 1.22453 4.85394 3.87436 4.85394 7.14309C4.85394 10.4118 7.4964 13.0616 10.756 13.0616C14.0157 13.0616 16.6581 10.4118 16.6581 7.14309C16.6581 3.87436 14.0157 1.22453 10.756 1.22453ZM3.63281 7.14309C3.63281 3.19807 6.82199 0 10.756 0C14.6901 0 17.8793 3.19807 17.8793 7.14309C17.8793 11.0881 14.6901 14.2862 10.756 14.2862C6.82199 14.2862 3.63281 11.0881 3.63281 7.14309Z" fill="#1A1A1A"/>
<path fill-rule="evenodd" clip-rule="evenodd" d="M10.7562 14.2862C8.86254 14.2862 7.00227 14.7859 5.36221 15.7351C3.72215 16.6843 2.36006 18.0495 1.41278 19.6937C1.2441 19.9865 0.87065 20.0868 0.57867 19.9176C0.286689 19.7484 0.18674 19.374 0.355428 19.0812C1.40991 17.2509 2.92614 15.7311 4.7518 14.6745C6.57746 13.6179 8.64826 13.0617 10.7562 13.0617C12.8641 13.0617 14.9349 13.618 16.7605 14.6746C18.5861 15.7313 20.1023 17.2511 21.1568 19.0814C21.3255 19.3742 21.2255 19.7487 20.9335 19.9178C20.6415 20.087 20.2681 19.9867 20.0994 19.6939C19.1522 18.0497 17.7901 16.6844 16.1501 15.7352C14.51 14.7859 12.6498 14.2862 10.7562 14.2862Z" fill="#1A1A1A"/>
</svg>
