<svg width="563" height="97" viewBox="0 0 563 97" fill="none" xmlns="http://www.w3.org/2000/svg">
<path d="M25.12 93.8L24.2742 95.6124L24.2982 95.6236L24.3226 95.6341L25.12 93.8ZM16.48 87.56L17.9882 86.2464L14.7302 82.5058L14.4825 87.4601L16.48 87.56ZM16.12 94.76V96.76H18.0225L18.1175 94.8599L16.12 94.76ZM0.52 94.76H-1.48V96.76H0.52V94.76ZM0.52 6.2V4.2H-1.48V6.2H0.52ZM16.96 6.2H18.96V4.2H16.96V6.2ZM16.96 39.08H14.96V44.5769L18.4924 40.3652L16.96 39.08ZM25.24 32.84L24.3785 31.035L24.3704 31.0389L24.3623 31.0429L25.24 32.84ZM51.04 34.52L49.9522 36.1983L49.9592 36.2028L49.9663 36.2073L51.04 34.52ZM61.36 46.16L59.5711 47.0544L59.5769 47.0659L59.5828 47.0773L61.36 46.16ZM61.48 80.24L63.2689 81.1344V81.1344L61.48 80.24ZM51.28 92L52.3821 93.6689L52.3894 93.6641L51.28 92ZM44.68 76.88L43.1664 75.5728L44.68 76.88ZM44.68 49.76L43.1493 51.0472L43.1651 51.066L43.1813 51.0844L44.68 49.76ZM20.92 49.76L22.4187 51.0844L22.4262 51.0759L22.4336 51.0672L20.92 49.76ZM36.64 94.2C32.9153 94.2 29.3467 93.4568 25.9175 91.9659L24.3226 95.6341C28.2533 97.3432 32.3647 98.2 36.64 98.2V94.2ZM25.9658 91.9876C22.5674 90.4017 19.9306 88.4766 17.9882 86.2464L14.9718 88.8736C17.3494 91.6034 20.4726 93.8383 24.2742 95.6124L25.9658 91.9876ZM14.4825 87.4601L14.1225 94.6601L18.1175 94.8599L18.4775 87.6599L14.4825 87.4601ZM16.12 92.76H0.52V96.76H16.12V92.76ZM2.52 94.76V6.2H-1.48V94.76H2.52ZM0.52 8.2H16.96V4.2H0.52V8.2ZM14.96 6.2V39.08H18.96V6.2H14.96ZM18.4924 40.3652C20.3626 38.1354 22.884 36.2164 26.1177 34.6371L24.3623 31.0429C20.716 32.8236 17.7174 35.0646 15.4276 37.7948L18.4924 40.3652ZM26.1015 34.645C29.3568 33.0913 32.7429 32.32 36.28 32.32V28.32C32.1371 28.32 28.1632 29.2287 24.3785 31.035L26.1015 34.645ZM36.28 32.32C41.4431 32.32 45.9798 33.6236 49.9522 36.1983L52.1278 32.8417C47.4602 29.8164 42.1569 28.32 36.28 28.32V32.32ZM49.9663 36.2073C54.0409 38.8003 57.2426 42.3973 59.5711 47.0544L63.1489 45.2656C60.5174 40.0027 56.8391 35.8397 52.1138 32.8327L49.9663 36.2073ZM59.5828 47.0773C61.9762 51.7146 63.2 57.0721 63.2 63.2H67.2C67.2 56.5279 65.8638 50.5254 63.1372 45.2427L59.5828 47.0773ZM63.2 63.2C63.2 69.3374 62.0123 74.7032 59.6912 79.3456L63.2689 81.1344C65.9077 75.8568 67.2 69.8626 67.2 63.2H63.2ZM59.6912 79.3456C57.3558 84.0162 54.1813 87.6621 50.1706 90.3359L52.3894 93.6641C57.0187 90.5779 60.6442 86.3838 63.2689 81.1344L59.6912 79.3456ZM50.1779 90.3311C46.2932 92.8964 41.8035 94.2 36.64 94.2V98.2C42.5165 98.2 47.7868 96.7036 52.3821 93.6689L50.1779 90.3311ZM32.92 84.16C38.2799 84.16 42.76 82.163 46.1936 78.1872L43.1664 75.5728C40.52 78.637 37.1601 80.16 32.92 80.16V84.16ZM46.1936 78.1872C49.6084 74.2333 51.24 69.1775 51.24 63.2H47.24C47.24 68.4225 45.8316 72.4867 43.1664 75.5728L46.1936 78.1872ZM51.24 63.2C51.24 57.2959 49.6043 52.312 46.1787 48.4356L43.1813 51.0844C45.8357 54.088 47.24 58.0641 47.24 63.2H51.24ZM46.2107 48.4728C42.845 44.4703 38.3493 42.48 32.92 42.48V46.48C37.2507 46.48 40.595 48.0097 43.1493 51.0472L46.2107 48.4728ZM32.92 42.48C27.4226 42.48 22.854 44.4607 19.4064 48.4528L22.4336 51.0672C25.066 48.0193 28.4974 46.48 32.92 46.48V42.48ZM19.4213 48.4356C15.9957 52.312 14.36 57.2959 14.36 63.2H18.36C18.36 58.0641 19.7643 54.088 22.4187 51.0844L19.4213 48.4356ZM14.36 63.2C14.36 69.1775 15.9916 74.2333 19.4064 78.1872L22.4336 75.5728C19.7684 72.4867 18.36 68.4225 18.36 63.2H14.36ZM19.4064 78.1872C22.854 82.1793 27.4226 84.16 32.92 84.16V80.16C28.4974 80.16 25.066 78.6207 22.4336 75.5728L19.4064 78.1872ZM90.2181 92L89.2585 93.7547L90.2181 92ZM78.2181 80.48L76.4834 81.4753L76.4895 81.486L76.4957 81.4965L78.2181 80.48ZM78.0981 46.4L76.3498 45.4287L76.3445 45.4383L78.0981 46.4ZM89.4981 34.52L88.4816 32.7976L88.4754 32.8013L88.4691 32.805L89.4981 34.52ZM121.538 34.4L120.478 36.096L120.496 36.107L120.514 36.1176L121.538 34.4ZM132.098 45.56L130.328 46.4902L130.334 46.5019L130.34 46.5135L132.098 45.56ZM135.698 61.76L133.699 61.7074L133.699 61.7135L135.698 61.76ZM135.578 66.92V68.92H137.532L137.578 66.9665L135.578 66.92ZM89.9781 66.92V64.92H87.5553L88.0144 67.299L89.9781 66.92ZM96.4581 77.72L95.2405 79.3066L95.2493 79.3134L95.2581 79.32L96.4581 77.72ZM117.578 80.36L116.89 78.4822L116.879 78.4861L116.869 78.49L117.578 80.36ZM125.258 75.68L126.883 74.5142L125.637 72.7771L123.987 74.1361L125.258 75.68ZM133.178 86.72L134.503 88.2187L135.856 87.0222L134.803 85.5542L133.178 86.72ZM121.298 93.8L121.982 95.6796L121.991 95.6762L122 95.6727L121.298 93.8ZM90.0981 56.6L88.1471 56.1601L87.5969 58.6H90.0981V56.6ZM120.098 56.6V58.6H122.098V56.6H120.098ZM120.098 56.12H122.098V56.0503L122.093 55.9808L120.098 56.12ZM115.778 47.72L114.461 49.2252L114.486 49.2469L114.512 49.2679L115.778 47.72ZM108.098 94.2C101.578 94.2 95.9582 92.8596 91.1777 90.2453L89.2585 93.7547C94.7181 96.7404 101.018 98.2 108.098 98.2V94.2ZM91.1777 90.2453C86.364 87.6127 82.6318 84.0236 79.9405 79.4635L76.4957 81.4965C79.5645 86.6964 83.8323 90.7873 89.2585 93.7547L91.1777 90.2453ZM79.9529 79.4847C77.3473 74.9436 76.0181 69.6947 76.0181 63.68H72.0181C72.0181 70.3053 73.4889 76.2564 76.4834 81.4753L79.9529 79.4847ZM76.0181 63.68C76.0181 57.4021 77.3175 51.9829 79.8518 47.3617L76.3445 45.4383C73.4387 50.7371 72.0181 56.8379 72.0181 63.68H76.0181ZM79.8464 47.3713C82.4814 42.6284 86.0373 38.9289 90.5271 36.235L88.4691 32.805C83.359 35.8711 79.3149 40.0916 76.3498 45.4287L79.8464 47.3713ZM90.5146 36.2424C95.0522 33.5645 100.293 32.2 106.298 32.2V28.2C99.6628 28.2 93.704 29.7155 88.4816 32.7976L90.5146 36.2424ZM106.298 32.2C111.633 32.2 116.34 33.5097 120.478 36.096L122.598 32.704C117.776 29.6903 112.324 28.2 106.298 28.2V32.2ZM120.514 36.1176C124.756 38.6481 128.018 42.095 130.328 46.4902L133.869 44.6297C131.218 39.585 127.441 35.5919 122.563 32.6824L120.514 36.1176ZM130.34 46.5135C132.712 50.8859 133.851 55.9307 133.699 61.7074L137.697 61.8126C137.865 55.4293 136.605 49.6741 133.856 44.6065L130.34 46.5135ZM133.699 61.7135L133.579 66.8735L137.578 66.9665L137.698 61.8065L133.699 61.7135ZM135.578 64.92H89.9781V68.92H135.578V64.92ZM88.0144 67.299C88.9799 72.3021 91.3835 76.3466 95.2405 79.3066L97.6758 76.1334C94.6527 73.8134 92.7364 70.6579 91.9419 66.541L88.0144 67.299ZM95.2581 79.32C99.1944 82.2722 104.082 83.68 109.778 83.68V79.68C104.754 79.68 100.762 78.4478 97.6581 76.12L95.2581 79.32ZM109.778 83.68C112.862 83.68 115.708 83.2086 118.287 82.23L116.869 78.49C114.809 79.2714 112.454 79.68 109.778 79.68V83.68ZM118.267 82.2378C120.942 81.2569 123.697 79.5569 126.53 77.2239L123.987 74.1361C121.38 76.2831 119.015 77.7031 116.89 78.4822L118.267 82.2378ZM123.633 76.8458L131.553 87.8858L134.803 85.5542L126.883 74.5142L123.633 76.8458ZM131.854 85.2213C128.604 88.093 124.857 90.3293 120.596 91.9273L122 95.6727C126.699 93.9107 130.872 91.427 134.503 88.2187L131.854 85.2213ZM120.615 91.9204C116.42 93.4459 112.25 94.2 108.098 94.2V98.2C112.746 98.2 117.377 97.3541 121.982 95.6796L120.615 91.9204ZM106.418 42.36C101.607 42.36 97.5227 43.4466 94.3581 45.82C91.176 48.2066 89.1467 51.7271 88.1471 56.1601L92.0491 57.0399C92.8895 53.3129 94.5002 50.7134 96.7581 49.02C99.0335 47.3134 102.189 46.36 106.418 46.36V42.36ZM90.0981 58.6H120.098V54.6H90.0981V58.6ZM122.098 56.6V56.12H118.098V56.6H122.098ZM122.093 55.9808C121.815 51.9977 120.117 48.6855 117.045 46.1721L114.512 49.2679C116.72 51.0745 117.901 53.3623 118.103 56.2592L122.093 55.9808ZM117.095 46.2148C114.14 43.6287 110.54 42.36 106.418 42.36V46.36C109.657 46.36 112.297 47.3313 114.461 49.2252L117.095 46.2148ZM187.259 95H185.259V97H187.259V95ZM187.259 11V8.99999H185.259V11H187.259ZM242.819 16.4L241.8 18.1209L241.813 18.1288L241.826 18.1365L242.819 16.4ZM257.099 31.16L255.333 32.0989L255.337 32.1075L255.342 32.1161L257.099 31.16ZM257.099 74.96L255.342 74.0038L255.338 74.0118L257.099 74.96ZM242.939 89.72L243.941 91.4509L243.949 91.4459L243.958 91.4409L242.939 89.72ZM204.539 26.72V24.72H202.539V26.72H204.539ZM204.539 79.28H202.539V81.28H204.539V79.28ZM238.379 72.2L236.891 70.8635L238.379 72.2ZM238.259 33.92L236.76 35.2441L236.771 35.2573L236.783 35.2703L238.259 33.92ZM189.259 95V11H185.259V95H189.259ZM187.259 13H221.459V8.99999H187.259V13ZM221.459 13C229.317 13 236.073 14.7303 241.8 18.1209L243.838 14.679C237.404 10.8697 229.921 8.99999 221.459 8.99999V13ZM241.826 18.1365C247.655 21.4673 252.148 26.1093 255.333 32.0989L258.865 30.2211C255.329 23.5707 250.302 18.3727 243.811 14.6635L241.826 18.1365ZM255.342 32.1161C258.601 38.1025 260.259 45.0451 260.259 53H264.259C264.259 44.4749 262.477 36.8575 258.855 30.2039L255.342 32.1161ZM260.259 53C260.259 61.0386 258.599 68.0202 255.342 74.0039L258.855 75.9161C262.478 69.2598 264.259 61.6014 264.259 53H260.259ZM255.338 74.0118C252.15 79.9326 247.686 84.585 241.92 87.999L243.958 91.4409C250.352 87.655 255.328 82.4674 258.86 75.9082L255.338 74.0118ZM241.937 87.9891C236.21 91.3045 229.408 93 221.459 93V97C229.989 97 237.507 95.1755 243.941 91.4509L241.937 87.9891ZM221.459 93H187.259V97H221.459V93ZM220.859 24.72H204.539V28.72H220.859V24.72ZM202.539 26.72V79.28H206.539V26.72H202.539ZM204.539 81.28H220.859V77.28H204.539V81.28ZM220.859 81.28C228.759 81.28 235.181 78.7527 239.867 73.5365L236.891 70.8635C233.097 75.0873 227.839 77.28 220.859 77.28V81.28ZM239.867 73.5365C244.519 68.3575 246.739 61.434 246.739 53H242.739C242.739 60.726 240.719 66.6025 236.891 70.8635L239.867 73.5365ZM246.739 53C246.739 44.6305 244.47 37.7445 239.734 32.5697L236.783 35.2703C240.687 39.5355 242.739 45.3695 242.739 53H246.739ZM239.758 32.5959C235.08 27.2999 228.697 24.72 220.859 24.72V28.72C227.74 28.72 232.958 30.9401 236.76 35.2441L239.758 32.5959ZM276.145 95H274.145V97H276.145V95ZM276.145 31.64V29.64H274.145V31.64H276.145ZM291.985 31.64L293.984 31.594L293.94 29.64H291.985V31.64ZM292.225 42.08L290.226 42.126L290.383 48.9911L293.936 43.1148L292.225 42.08ZM300.385 33.68L301.467 35.3624L301.476 35.356L300.385 33.68ZM315.145 30.68L314.753 32.6412L314.824 32.6555L314.897 32.6646L315.145 30.68ZM318.385 31.4L320.327 31.879L320.757 30.1345L319.068 29.5204L318.385 31.4ZM313.945 49.4L312.987 51.1558L315.265 52.3984L315.887 49.879L313.945 49.4ZM310.585 48.2L310.127 50.1468L310.585 48.2ZM296.545 51.8L297.959 53.2142L296.545 51.8ZM292.585 95V97H294.585V95H292.585ZM278.145 95V31.64H274.145V95H278.145ZM276.145 33.64H291.985V29.64H276.145V33.64ZM289.986 31.686L290.226 42.126L294.224 42.034L293.984 31.594L289.986 31.686ZM293.936 43.1148C295.86 39.9342 298.365 37.3563 301.467 35.3624L299.303 31.9976C295.685 34.3237 292.75 37.3458 290.514 41.0452L293.936 43.1148ZM301.476 35.356C304.623 33.3072 307.848 32.32 311.185 32.32V28.32C307.002 28.32 303.027 29.5728 299.294 32.004L301.476 35.356ZM311.185 32.32C312.516 32.32 313.702 32.431 314.753 32.6412L315.537 28.7188C314.188 28.449 312.734 28.32 311.185 28.32V32.32ZM314.897 32.6646C316.08 32.8124 317.004 33.0259 317.702 33.2796L319.068 29.5204C318.006 29.1341 316.77 28.8676 315.393 28.6954L314.897 32.6646ZM316.443 30.921L312.003 48.921L315.887 49.879L320.327 31.879L316.443 30.921ZM314.903 47.6442C313.817 47.0522 312.515 46.5994 311.043 46.2532L310.127 50.1468C311.375 50.4406 312.313 50.7878 312.987 51.1558L314.903 47.6442ZM311.043 46.2532C309.537 45.8988 308.023 45.72 306.505 45.72V49.72C307.707 49.72 308.913 49.8612 310.127 50.1468L311.043 46.2532ZM306.505 45.72C302.066 45.72 298.234 47.2828 295.131 50.3858L297.959 53.2142C300.296 50.8772 303.104 49.72 306.505 49.72V45.72ZM295.131 50.3858C292.079 53.4375 290.585 57.3237 290.585 61.88H294.585C294.585 58.2762 295.731 55.4425 297.959 53.2142L295.131 50.3858ZM290.585 61.88V95H294.585V61.88H290.585ZM292.585 93H276.145V97H292.585V93ZM330.459 16.04L329.114 17.5199L329.13 17.5347L329.147 17.5492L330.459 16.04ZM330.459 2.84L329.111 1.36303L329.094 1.37798L329.078 1.39329L330.459 2.84ZM345.459 2.71999L346.804 1.24011V1.24011L345.459 2.71999ZM345.339 15.92L343.991 14.443L343.974 14.458L343.958 14.4733L345.339 15.92ZM329.859 95H327.859V97H329.859V95ZM329.859 31.64V29.64H327.859V31.64H329.859ZM346.299 31.64H348.299V29.64H346.299V31.64ZM346.299 95V97H348.299V95H346.299ZM338.019 16.44C335.148 16.44 333.146 15.7264 331.771 14.5308L329.147 17.5492C331.452 19.5536 334.49 20.44 338.019 20.44V16.44ZM331.804 14.5601C330.536 13.4069 329.819 11.7857 329.819 9.43999H325.819C325.819 12.6943 326.862 15.4731 329.114 17.5199L331.804 14.5601ZM329.819 9.43999C329.819 7.19556 330.524 5.54295 331.84 4.28671L329.078 1.39329C326.874 3.49705 325.819 6.24443 325.819 9.43999H329.819ZM331.808 4.31697C333.184 3.06065 335.172 2.32 338.019 2.32V-1.68C334.467 -1.68 331.415 -0.740656 329.111 1.36303L331.808 4.31697ZM338.019 2.32C340.896 2.32 342.833 3.03581 344.114 4.19987L346.804 1.24011C344.565 -0.795824 341.542 -1.68 338.019 -1.68V2.32ZM344.114 4.19987C345.37 5.34211 346.099 6.99474 346.099 9.43999H350.099C350.099 6.12525 349.068 3.29789 346.804 1.24011L344.114 4.19987ZM346.099 9.43999C346.099 11.5557 345.388 13.1667 343.991 14.443L346.688 17.397C348.97 15.3133 350.099 12.6043 350.099 9.43999H346.099ZM343.958 14.4733C342.667 15.706 340.776 16.44 338.019 16.44V20.44C341.502 20.44 344.491 19.494 346.72 17.3667L343.958 14.4733ZM331.859 95V31.64H327.859V95H331.859ZM329.859 33.64H346.299V29.64H329.859V33.64ZM344.299 31.64V95H348.299V31.64H344.299ZM346.299 93H329.859V97H346.299V93ZM384.662 95L382.818 95.7752L383.333 97H384.662V95ZM358.022 31.64V29.64H355.011L356.178 32.4152L358.022 31.64ZM376.022 31.64L377.902 30.9586L377.424 29.64H376.022V31.64ZM391.502 74.36L389.621 75.0414L391.466 80.1321L393.373 75.0646L391.502 74.36ZM407.582 31.64V29.64H406.197L405.71 30.9354L407.582 31.64ZM425.102 31.64L426.931 32.4475L428.17 29.64H425.102V31.64ZM397.142 95V97H398.445L398.971 95.8074L397.142 95ZM386.505 94.2248L359.865 30.8648L356.178 32.4152L382.818 95.7752L386.505 94.2248ZM358.022 33.64H376.022V29.64H358.022V33.64ZM374.141 32.3214L389.621 75.0414L393.382 73.6786L377.902 30.9586L374.141 32.3214ZM393.373 75.0646L409.453 32.3446L405.71 30.9354L389.63 73.6554L393.373 75.0646ZM407.582 33.64H425.102V29.64H407.582V33.64ZM423.272 30.8326L395.312 94.1926L398.971 95.8074L426.931 32.4475L423.272 30.8326ZM397.142 93H384.662V97H397.142V93ZM445.999 92L445.04 93.7547L445.999 92ZM433.999 80.48L432.265 81.4753L432.271 81.486L432.277 81.4965L433.999 80.48ZM433.879 46.4L432.131 45.4287L432.126 45.4383L433.879 46.4ZM445.279 34.52L444.263 32.7976L444.257 32.8013L444.25 32.805L445.279 34.52ZM477.319 34.4L476.259 36.096L476.277 36.107L476.295 36.1176L477.319 34.4ZM487.879 45.56L486.109 46.4902L486.115 46.5019L486.121 46.5135L487.879 45.56ZM491.479 61.76L489.48 61.7074L489.48 61.7135L491.479 61.76ZM491.359 66.92V68.92H493.313L493.359 66.9665L491.359 66.92ZM445.759 66.92V64.92H443.337L443.796 67.299L445.759 66.92ZM452.239 77.72L451.022 79.3066L451.031 79.3134L451.039 79.32L452.239 77.72ZM473.359 80.36L472.671 78.4822L472.66 78.4861L472.65 78.49L473.359 80.36ZM481.039 75.68L482.664 74.5142L481.418 72.7771L479.768 74.1361L481.039 75.68ZM488.959 86.72L490.284 88.2187L491.638 87.0222L490.584 85.5542L488.959 86.72ZM477.079 93.8L477.763 95.6796L477.772 95.6762L477.782 95.6727L477.079 93.8ZM445.879 56.6L443.928 56.1601L443.378 58.6H445.879V56.6ZM475.879 56.6V58.6H477.879V56.6H475.879ZM475.879 56.12H477.879V56.0503L477.875 55.9808L475.879 56.12ZM471.559 47.72L470.242 49.2252L470.267 49.2469L470.293 49.2679L471.559 47.72ZM463.879 94.2C457.359 94.2 451.739 92.8596 446.959 90.2453L445.04 93.7547C450.499 96.7404 456.8 98.2 463.879 98.2V94.2ZM446.959 90.2453C442.145 87.6127 438.413 84.0236 435.722 79.4635L432.277 81.4965C435.346 86.6964 439.614 90.7873 445.04 93.7547L446.959 90.2453ZM435.734 79.4847C433.129 74.9436 431.799 69.6947 431.799 63.68H427.799C427.799 70.3053 429.27 76.2564 432.265 81.4753L435.734 79.4847ZM431.799 63.68C431.799 57.4021 433.099 51.9829 435.633 47.3617L432.126 45.4383C429.22 50.7371 427.799 56.8379 427.799 63.68H431.799ZM435.628 47.3713C438.263 42.6284 441.819 38.9289 446.308 36.235L444.25 32.805C439.14 35.8711 435.096 40.0916 432.131 45.4287L435.628 47.3713ZM446.296 36.2424C450.833 33.5645 456.075 32.2 462.079 32.2V28.2C455.444 28.2 449.485 29.7155 444.263 32.7976L446.296 36.2424ZM462.079 32.2C467.414 32.2 472.121 33.5097 476.259 36.096L478.379 32.704C473.558 29.6903 468.105 28.2 462.079 28.2V32.2ZM476.295 36.1176C480.537 38.6481 483.799 42.095 486.109 46.4902L489.65 44.6297C486.999 39.585 483.222 35.5919 478.344 32.6824L476.295 36.1176ZM486.121 46.5135C488.493 50.8859 489.632 55.9307 489.48 61.7074L493.479 61.8126C493.647 55.4293 492.386 49.6741 489.637 44.6065L486.121 46.5135ZM489.48 61.7135L489.36 66.8735L493.359 66.9665L493.479 61.8065L489.48 61.7135ZM491.359 64.92H445.759V68.92H491.359V64.92ZM443.796 67.299C444.761 72.3021 447.165 76.3466 451.022 79.3066L453.457 76.1334C450.434 73.8134 448.518 70.6579 447.723 66.541L443.796 67.299ZM451.039 79.32C454.976 82.2722 459.863 83.68 465.559 83.68V79.68C460.535 79.68 456.543 78.4478 453.439 76.12L451.039 79.32ZM465.559 83.68C468.643 83.68 471.489 83.2086 474.069 82.23L472.65 78.49C470.59 79.2714 468.235 79.68 465.559 79.68V83.68ZM474.048 82.2378C476.723 81.2569 479.478 79.5569 482.311 77.2239L479.768 74.1361C477.161 76.2831 474.796 77.7031 472.671 78.4822L474.048 82.2378ZM479.414 76.8458L487.334 87.8858L490.584 85.5542L482.664 74.5142L479.414 76.8458ZM487.635 85.2213C484.385 88.093 480.638 90.3293 476.377 91.9273L477.782 95.6727C482.48 93.9107 486.653 91.427 490.284 88.2187L487.635 85.2213ZM476.396 91.9204C472.201 93.4459 468.032 94.2 463.879 94.2V98.2C468.527 98.2 473.158 97.3541 477.763 95.6796L476.396 91.9204ZM462.199 42.36C457.388 42.36 453.304 43.4466 450.139 45.82C446.957 48.2066 444.928 51.7271 443.928 56.1601L447.83 57.0399C448.671 53.3129 450.281 50.7134 452.539 49.02C454.815 47.3134 457.97 46.36 462.199 46.36V42.36ZM445.879 58.6H475.879V54.6H445.879V58.6ZM477.879 56.6V56.12H473.879V56.6H477.879ZM477.875 55.9808C477.597 51.9977 475.898 48.6855 472.826 46.1721L470.293 49.2679C472.501 51.0745 473.682 53.3623 473.884 56.2592L477.875 55.9808ZM472.876 46.2148C469.921 43.6287 466.321 42.36 462.199 42.36V46.36C465.438 46.36 468.078 47.3313 470.242 49.2252L472.876 46.2148ZM504.192 95H502.192V97H504.192V95ZM504.192 31.64V29.64H502.192V31.64H504.192ZM520.032 31.64L522.031 31.5837L521.976 29.64H520.032V31.64ZM520.272 40.16L518.273 40.2163L518.434 45.9438L521.872 41.36L520.272 40.16ZM528.912 33.08L528.002 31.2991L528.912 33.08ZM562.032 95V97H564.032V95H562.032ZM545.712 95H543.712V97H545.712V95ZM534.312 44.36V46.36H534.354L534.396 46.3582L534.312 44.36ZM524.472 47.96L523.127 46.4801L523.115 46.4904L523.104 46.5009L524.472 47.96ZM520.632 95V97H522.632V95H520.632ZM506.192 95V31.64H502.192V95H506.192ZM504.192 33.64H520.032V29.64H504.192V33.64ZM518.033 31.6963L518.273 40.2163L522.271 40.1037L522.031 31.5837L518.033 31.6963ZM521.872 41.36C523.828 38.7521 526.46 36.5795 529.822 34.8609L528.002 31.2991C524.164 33.2605 521.036 35.8079 518.672 38.96L521.872 41.36ZM529.822 34.8609C533.149 33.1602 536.598 32.32 540.192 32.32V28.32C535.945 28.32 531.874 29.3198 528.002 31.2991L529.822 34.8609ZM540.192 32.32C547.065 32.32 551.886 34.3431 555.042 38.0887C558.254 41.8999 560.032 47.8327 560.032 56.24H564.032C564.032 47.3673 562.17 40.3401 558.101 35.5113C553.977 30.6169 547.879 28.32 540.192 28.32V32.32ZM560.032 56.24V95H564.032V56.24H560.032ZM562.032 93H545.712V97H562.032V93ZM547.712 95V57.44H543.712V95H547.712ZM547.712 57.44C547.712 52.6961 546.724 48.7769 544.37 46.0759C541.952 43.3022 538.429 42.1849 534.228 42.3618L534.396 46.3582C537.795 46.2151 539.972 47.1178 541.354 48.7041C542.8 50.3631 543.712 53.1439 543.712 57.44H547.712ZM534.312 42.36C529.948 42.36 526.172 43.7113 523.127 46.4801L525.817 49.4399C528.052 47.4087 530.836 46.36 534.312 46.36V42.36ZM523.104 46.5009C520.139 49.2804 518.632 52.7691 518.632 56.84H522.632C522.632 53.8709 523.685 51.4396 525.84 49.4191L523.104 46.5009ZM518.632 56.84V95H522.632V56.84H518.632ZM520.632 93H504.192V97H520.632V93Z" fill="#1A1A1A"/>
</svg>
