<svg width="61" height="60" viewBox="0 0 61 60" fill="none" xmlns="http://www.w3.org/2000/svg">
<path fill-rule="evenodd" clip-rule="evenodd" d="M30.4499 1.54249C14.6896 1.54249 1.91337 14.2833 1.91337 30C1.91337 45.7166 14.6896 58.4575 30.4499 58.4575C46.2103 58.4575 58.9865 45.7166 58.9865 30C58.9865 14.2833 46.2103 1.54249 30.4499 1.54249ZM0.449951 30C0.449951 13.4774 13.8814 0.0831299 30.4499 0.0831299C47.0185 0.0831299 60.4499 13.4774 60.4499 30C60.4499 46.5226 47.0185 59.9169 30.4499 59.9169C13.8814 59.9169 0.449951 46.5226 0.449951 30Z" fill="#F1F1F1"/>
<path fill-rule="evenodd" clip-rule="evenodd" d="M35.872 18.5669C36.1423 18.8664 36.118 19.3278 35.8176 19.5974L24.2266 30.0001L35.8176 40.4029C36.118 40.6725 36.1423 41.1338 35.872 41.4334C35.6016 41.7329 35.139 41.7572 34.8386 41.4876L22.6433 30.5425C22.4892 30.4041 22.4011 30.207 22.4011 30.0001C22.4011 29.7933 22.4892 29.5961 22.6433 29.4578L34.8386 18.5126C35.139 18.2431 35.6016 18.2673 35.872 18.5669Z" fill="#9A9A9A"/>
</svg>
