<svg width="61" height="60" viewBox="0 0 61 60" fill="none" xmlns="http://www.w3.org/2000/svg">
<path fill-rule="evenodd" clip-rule="evenodd" d="M30.4499 1.54249C14.6896 1.54249 1.91337 14.2833 1.91337 30C1.91337 45.7166 14.6896 58.4575 30.4499 58.4575C46.2103 58.4575 58.9865 45.7166 58.9865 30C58.9865 14.2833 46.2103 1.54249 30.4499 1.54249ZM0.449951 30C0.449951 13.4774 13.8814 0.0831299 30.4499 0.0831299C47.0185 0.0831299 60.4499 13.4774 60.4499 30C60.4499 46.5226 47.0185 59.9169 30.4499 59.9169C13.8814 59.9169 0.449951 46.5226 0.449951 30Z" fill="#F1F1F1"/>
<path fill-rule="evenodd" clip-rule="evenodd" d="M26.2477 18.5669C26.518 18.2673 26.9806 18.2431 27.281 18.5126L39.476 29.4578C39.6302 29.5961 39.7183 29.7933 39.7183 30.0001C39.7183 30.207 39.6302 30.4041 39.476 30.5425L27.281 41.4876C26.9806 41.7572 26.518 41.7329 26.2477 41.4334C25.9773 41.1338 26.0017 40.6725 26.302 40.4029L37.8928 30.0001L26.302 19.5974C26.0017 19.3278 25.9773 18.8664 26.2477 18.5669Z" fill="#9A9A9A"/>
</svg>
