<svg width="21" height="14" viewBox="0 0 21 14" fill="none" xmlns="http://www.w3.org/2000/svg">
<path fill-rule="evenodd" clip-rule="evenodd" d="M1.96716 1.07692C1.86703 1.07692 1.78585 1.15728 1.78585 1.25641V12.7436C1.78585 12.8427 1.86703 12.9231 1.96716 12.9231H19.3728C19.4729 12.9231 19.5541 12.8427 19.5541 12.7436V1.25641C19.5541 1.15728 19.4729 1.07692 19.3728 1.07692H1.96716ZM0.697998 1.25641C0.697998 0.562514 1.26622 0 1.96716 0H19.3728C20.0737 0 20.642 0.562514 20.642 1.25641V12.7436C20.642 13.4375 20.0737 14 19.3728 14H1.96716C1.26622 14 0.697998 13.4375 0.697998 12.7436V1.25641Z" fill="white"/>
<path fill-rule="evenodd" clip-rule="evenodd" d="M13.7517 10.5898C13.7517 10.2924 13.9952 10.0513 14.2956 10.0513H17.1966C17.497 10.0513 17.7405 10.2924 17.7405 10.5898C17.7405 10.8873 17.497 11.1284 17.1966 11.1284H14.2956C13.9952 11.1284 13.7517 10.8873 13.7517 10.5898Z" fill="white"/>
<path fill-rule="evenodd" clip-rule="evenodd" d="M9.40015 10.5898C9.40015 10.2924 9.64368 10.0513 9.94409 10.0513H11.3946C11.695 10.0513 11.9385 10.2924 11.9385 10.5898C11.9385 10.8873 11.695 11.1284 11.3946 11.1284H9.94409C9.64368 11.1284 9.40015 10.8873 9.40015 10.5898Z" fill="white"/>
<path fill-rule="evenodd" clip-rule="evenodd" d="M0.69751 4.20459C0.69751 3.90714 0.941035 3.66602 1.24144 3.66602H20.0976C20.398 3.66602 20.6415 3.90714 20.6415 4.20459C20.6415 4.50204 20.398 4.74316 20.0976 4.74316H1.24144C0.941035 4.74316 0.69751 4.50204 0.69751 4.20459Z" fill="white"/>
<path fill-rule="evenodd" clip-rule="evenodd" d="M0.69751 6.53857C0.69751 6.24113 0.941035 6 1.24144 6H20.0976C20.398 6 20.6415 6.24113 20.6415 6.53857C20.6415 6.83602 20.398 7.07715 20.0976 7.07715H1.24144C0.941035 7.07715 0.69751 6.83602 0.69751 6.53857Z" fill="white"/>
</svg>
