<svg width="21" height="20" viewBox="0 0 21 20" fill="none" xmlns="http://www.w3.org/2000/svg">
<path fill-rule="evenodd" clip-rule="evenodd" d="M0.405273 0.566038C0.405273 0.253424 0.657995 0 0.969743 0H2.66792C2.97637 0 3.27503 0.108556 3.51184 0.306743C3.74865 0.50493 3.90859 0.780175 3.96377 1.08449L6.50395 15.0943H16.7749C17.0866 15.0943 17.3394 15.3478 17.3394 15.6604C17.3394 15.973 17.0866 16.2264 16.7749 16.2264H6.03286C5.76006 16.2264 5.5263 16.0308 5.4775 15.7616L2.85304 1.287C2.84516 1.24353 2.82231 1.20421 2.78848 1.1759C2.75465 1.14758 2.71198 1.13208 2.66792 1.13208H0.969743C0.657995 1.13208 0.405273 0.878651 0.405273 0.566038Z" fill="#1A1A1A"/>
<path fill-rule="evenodd" clip-rule="evenodd" d="M6.99091 16.2264C6.26351 16.2264 5.67384 16.8178 5.67384 17.5472C5.67384 18.2766 6.26351 18.8679 6.99091 18.8679C7.7183 18.8679 8.30797 18.2766 8.30797 17.5472C8.30797 16.8178 7.7183 16.2264 6.99091 16.2264ZM4.54492 17.5472C4.54492 16.1925 5.64003 15.0944 6.99091 15.0944C8.34179 15.0944 9.43689 16.1925 9.43689 17.5472C9.43689 18.9018 8.34179 20 6.99091 20C5.64003 20 4.54492 18.9018 4.54492 17.5472Z" fill="#1A1A1A"/>
<path fill-rule="evenodd" clip-rule="evenodd" d="M16.7751 16.2264C16.0477 16.2264 15.458 16.8178 15.458 17.5472C15.458 18.2766 16.0477 18.8679 16.7751 18.8679C17.5026 18.8679 18.0922 18.2766 18.0922 17.5472C18.0922 16.8178 17.5026 16.2264 16.7751 16.2264ZM14.3291 17.5472C14.3291 16.1925 15.4242 15.0944 16.7751 15.0944C18.1261 15.0944 19.2212 16.1925 19.2212 17.5472C19.2212 18.9018 18.1261 20 16.7751 20C15.4242 20 14.3291 18.9018 14.3291 17.5472Z" fill="#1A1A1A"/>
<path fill-rule="evenodd" clip-rule="evenodd" d="M3.41602 4.33963C3.41602 4.02701 3.66874 3.77359 3.98049 3.77359H19.7857C19.9531 3.77359 20.1119 3.84808 20.2191 3.97694C20.3264 4.1058 20.3711 4.27575 20.3411 4.44088L19.1974 10.7486C19.1107 11.2268 18.8594 11.6594 18.4872 11.9708C18.1151 12.2822 17.6458 12.4528 17.1611 12.4528H5.34891C5.03716 12.4528 4.78443 12.1994 4.78443 11.8868C4.78443 11.5742 5.03716 11.3208 5.34891 11.3208H17.1611C17.3814 11.3208 17.5947 11.2432 17.7639 11.1017C17.933 10.9601 18.0473 10.7635 18.0867 10.5461L19.1094 4.90567H3.98049C3.66874 4.90567 3.41602 4.65224 3.41602 4.33963Z" fill="#1A1A1A"/>
</svg>
