<svg width="16" height="16" viewBox="0 0 16 16" fill="none" xmlns="http://www.w3.org/2000/svg">
<path fill-rule="evenodd" clip-rule="evenodd" d="M1.18109 0H14.8186C15.1318 0 15.4322 0.124443 15.6537 0.345939C15.8752 0.567436 15.9996 0.867801 15.9996 1.18104V14.8185C15.9996 15.1318 15.8752 15.4322 15.6537 15.6537C15.4322 15.8752 15.1318 15.9996 14.8186 15.9996H9.19771V10.5206H11.0617L11.4164 8.20815H9.19771V6.70818C9.19771 6.07554 9.5077 5.45821 10.5014 5.45821H11.5102V3.4895C11.5102 3.4895 10.5947 3.33326 9.71942 3.33326C7.89211 3.33326 6.69777 4.4407 6.69777 6.44566V8.20815H4.66656V10.5206H6.69777V15.9996H1.18109C0.867842 15.9996 0.567426 15.8752 0.345929 15.6537C0.124433 15.4322 0 15.1318 0 14.8185V1.18104C0 0.867801 0.124433 0.567436 0.345929 0.345939C0.567426 0.124443 0.867842 0 1.18109 0Z" fill="white"/>
</svg>
