<svg width="22" height="20" viewBox="0 0 22 20" fill="none" xmlns="http://www.w3.org/2000/svg">
<path d="M11.5775 18.7579L19.3938 10.3861C21.3144 8.3291 21.5977 4.94497 19.7802 2.78319C19.325 2.24014 18.7712 1.80212 18.1527 1.49587C17.5341 1.18962 16.8638 1.02156 16.1827 1.00194C15.5015 0.982322 14.8237 1.11156 14.1907 1.38176C13.5577 1.65196 12.9828 2.05747 12.5009 2.57353L11.0318 4.14705L9.76338 2.78847C7.84283 0.731439 4.68323 0.427956 2.66488 2.37461C2.15785 2.86221 1.7489 3.45535 1.46297 4.11782C1.17704 4.7803 1.02013 5.49823 1.00181 6.22781C0.983495 6.95739 1.10415 7.68331 1.35643 8.36129C1.6087 9.03927 1.98731 9.65509 2.46913 10.1712L10.4862 18.7579C10.6309 18.9129 10.8272 19 11.0318 19C11.2365 19 11.4328 18.9129 11.5775 18.7579V18.7579Z" stroke="#1A1A1A" stroke-width="1.2" stroke-linecap="round" stroke-linejoin="round"/>
</svg>
