<svg width="24" height="20" viewBox="0 0 24 20" fill="none" xmlns="http://www.w3.org/2000/svg">
<path d="M12.3939 18.7579L20.7425 10.3861C22.7938 8.3291 23.0964 4.94497 21.1552 2.78319C20.6689 2.24014 20.0774 1.80212 19.4168 1.49587C18.7562 1.18962 18.0402 1.02156 17.3127 1.00194C16.5851 0.982322 15.8612 1.11156 15.1851 1.38176C14.509 1.65196 13.8949 2.05747 13.3802 2.57353L11.8111 4.14705L10.4563 2.78847C8.40496 0.731439 5.03022 0.427956 2.87443 2.37461C2.33289 2.86221 1.89609 3.45535 1.59069 4.11782C1.28529 4.7803 1.11769 5.49823 1.09813 6.22781C1.07856 6.95739 1.20744 7.68331 1.47689 8.36129C1.74634 9.03927 2.15072 9.65509 2.66536 10.1712L11.2283 18.7579C11.3828 18.9129 11.5925 19 11.8111 19C12.0297 19 12.2393 18.9129 12.3939 18.7579V18.7579Z" stroke="#1A1A1A" stroke-width="1.2" stroke-linecap="round" stroke-linejoin="round"/>
</svg>
