<svg width="16" height="16" viewBox="0 0 16 16" fill="none" xmlns="http://www.w3.org/2000/svg">
<g style="mix-blend-mode:luminosity" clip-path="url(#clip0)">
<path d="M7.99958 1.44059C10.137 1.44059 10.3901 1.44997 11.2308 1.48747C12.012 1.52184 12.4339 1.65309 12.7151 1.76246C13.087 1.90621 13.3557 2.0812 13.6338 2.35932C13.9151 2.64057 14.0869 2.90618 14.2307 3.27805C14.3401 3.5593 14.4713 3.98429 14.5057 4.76239C14.5432 5.60612 14.5526 5.85924 14.5526 7.99357C14.5526 10.131 14.5432 10.3841 14.5057 11.2247C14.4713 12.006 14.3401 12.4278 14.2307 12.7091C14.0869 13.081 13.9119 13.3497 13.6338 13.6278C13.3526 13.9091 13.087 14.0809 12.7151 14.2247C12.4339 14.3341 12.0089 14.4653 11.2308 14.4997C10.387 14.5372 10.1339 14.5465 7.99958 14.5465C5.86212 14.5465 5.609 14.5372 4.7684 14.4997C3.98717 14.4653 3.5653 14.3341 3.28406 14.2247C2.91219 14.0809 2.64345 13.9059 2.36533 13.6278C2.08408 13.3466 1.91221 13.081 1.76847 12.7091C1.65909 12.4278 1.52785 12.0029 1.49347 11.2247C1.45597 10.381 1.4466 10.1279 1.4466 7.99357C1.4466 5.85612 1.45597 5.603 1.49347 4.76239C1.52785 3.98116 1.65909 3.5593 1.76847 3.27805C1.91221 2.90618 2.08721 2.63744 2.36533 2.35932C2.64657 2.07808 2.91219 1.90621 3.28406 1.76246C3.5653 1.65309 3.99029 1.52184 4.7684 1.48747C5.609 1.44997 5.86212 1.44059 7.99958 1.44059ZM7.99958 0C5.82775 0 5.55588 0.00937479 4.70278 0.0468739C3.85279 0.0843731 3.26843 0.22187 2.76219 0.418741C2.23408 0.624986 1.78722 0.896855 1.34348 1.34372C0.896611 1.78746 0.624742 2.23433 0.418496 2.75931C0.221626 3.26868 0.084129 3.84991 0.0466298 4.69989C0.00913065 5.55613 -0.000244141 5.82799 -0.000244141 7.99982C-0.000244141 10.1716 0.00913065 10.4435 0.0466298 11.2966C0.084129 12.1466 0.221626 12.731 0.418496 13.2372C0.624742 13.7653 0.896611 14.2122 1.34348 14.6559C1.78722 15.0997 2.23408 15.3747 2.75907 15.5778C3.26843 15.7746 3.84967 15.9121 4.69965 15.9496C5.55276 15.9871 5.82462 15.9965 7.99645 15.9965C10.1683 15.9965 10.4401 15.9871 11.2933 15.9496C12.1432 15.9121 12.7276 15.7746 13.2338 15.5778C13.7588 15.3747 14.2057 15.0997 14.6494 14.6559C15.0932 14.2122 15.3682 13.7653 15.5713 13.2403C15.7682 12.731 15.9056 12.1497 15.9431 11.2997C15.9806 10.4466 15.99 10.1748 15.99 8.00295C15.99 5.83112 15.9806 5.55925 15.9431 4.70614C15.9056 3.85616 15.7682 3.2718 15.5713 2.76556C15.3744 2.23432 15.1025 1.78746 14.6557 1.34372C14.2119 0.89998 13.7651 0.624986 13.2401 0.421866C12.7307 0.224995 12.1495 0.087498 11.2995 0.0499989C10.4433 0.00937479 10.1714 0 7.99958 0Z" fill="white"/>
<path d="M7.99966 3.89062C5.73096 3.89062 3.89038 5.73121 3.89038 7.99991C3.89038 10.2686 5.73096 12.1092 7.99966 12.1092C10.2684 12.1092 12.1089 10.2686 12.1089 7.99991C12.1089 5.73121 10.2684 3.89062 7.99966 3.89062ZM7.99966 10.6655C6.52782 10.6655 5.3341 9.47175 5.3341 7.99991C5.3341 6.52807 6.52782 5.33434 7.99966 5.33434C9.47151 5.33434 10.6652 6.52807 10.6652 7.99991C10.6652 9.47175 9.47151 10.6655 7.99966 10.6655Z" fill="white"/>
<path d="M13.2307 3.72791C13.2307 4.25915 12.7995 4.68726 12.2714 4.68726C11.7401 4.68726 11.312 4.25602 11.312 3.72791C11.312 3.19667 11.7433 2.76855 12.2714 2.76855C12.7995 2.76855 13.2307 3.1998 13.2307 3.72791Z" fill="white"/>
</g>
<defs>
<clipPath id="clip0">
<rect width="15.9996" height="15.9996" fill="white" transform="translate(-0.000244141)"/>
</clipPath>
</defs>
</svg>
