<svg width="16" height="16" viewBox="0 0 16 16" fill="none" xmlns="http://www.w3.org/2000/svg">
<g clip-path="url(#clip0)">
<path d="M14.8176 0H1.18011C0.866865 0 0.566452 0.124436 0.344955 0.345932C0.123459 0.567428 -0.000976562 0.867842 -0.000976562 1.18108V14.8186C-0.000976562 15.1318 0.123459 15.4322 0.344955 15.6537C0.566452 15.8752 0.866865 15.9996 1.18011 15.9996H14.8176C15.1308 15.9996 15.4312 15.8752 15.6527 15.6537C15.8742 15.4322 15.9987 15.1318 15.9987 14.8186V1.18108C15.9987 0.867842 15.8742 0.567428 15.6527 0.345932C15.4312 0.124436 15.1308 0 14.8176 0ZM4.76781 13.6297H2.3623V5.98875H4.76781V13.6297ZM3.56339 4.92989C3.29053 4.92835 3.02423 4.84602 2.79812 4.69329C2.572 4.54055 2.3962 4.32426 2.29289 4.0717C2.18958 3.81915 2.16341 3.54165 2.21766 3.27423C2.27192 3.00681 2.40417 2.76146 2.59774 2.56913C2.7913 2.3768 3.0375 2.24613 3.30526 2.19359C3.57302 2.14105 3.85035 2.16901 4.10223 2.27394C4.35412 2.37886 4.56928 2.55605 4.72056 2.78315C4.87184 3.01024 4.95246 3.27705 4.95225 3.54992C4.95482 3.73261 4.92059 3.91394 4.85159 4.08311C4.78259 4.25228 4.68024 4.40583 4.55063 4.53461C4.42103 4.66338 4.26683 4.76475 4.09721 4.83266C3.9276 4.90057 3.74605 4.93364 3.56339 4.92989ZM13.6343 13.6364H11.2299V9.46201C11.2299 8.23093 10.7066 7.85093 10.031 7.85093C9.3177 7.85093 8.61772 8.3887 8.61772 9.49312V13.6364H6.21222V5.99431H8.5255V7.05318H8.55661C8.78883 6.58319 9.60214 5.77987 10.8432 5.77987C12.1854 5.77987 13.6354 6.57652 13.6354 8.9098L13.6343 13.6364Z" fill="white"/>
</g>
<defs>
<clipPath id="clip0">
<rect width="15.9996" height="15.9996" fill="white" transform="translate(-0.000976562)"/>
</clipPath>
</defs>
</svg>
