<svg width="15" height="14" viewBox="0 0 15 14" fill="none" xmlns="http://www.w3.org/2000/svg">
<path fill-rule="evenodd" clip-rule="evenodd" d="M9.173 0.86703C9.2344 0.638081 9.46927 0.502397 9.69758 0.56397C10.7376 0.844462 11.6859 1.39407 12.4475 2.15775C13.2091 2.92143 13.7572 3.87237 14.0369 4.91532C14.0983 5.14427 13.963 5.37978 13.7347 5.44136C13.5063 5.50293 13.2715 5.36725 13.2101 5.1383C12.9693 4.24063 12.4976 3.42215 11.8421 2.76485C11.1866 2.10754 10.3704 1.63449 9.47522 1.39307C9.2469 1.33149 9.1116 1.09598 9.173 0.86703Z" fill="#F1F1F1"/>
<path fill-rule="evenodd" clip-rule="evenodd" d="M8.58193 3.07907C8.64334 2.85012 8.8782 2.71443 9.10651 2.77601C9.75952 2.95212 10.3549 3.29719 10.8331 3.77668C11.3112 4.25616 11.6553 4.85322 11.831 5.50804C11.8924 5.73699 11.7571 5.97251 11.5287 6.03408C11.3004 6.09565 11.0656 5.95997 11.0042 5.73102C10.8675 5.22147 10.5997 4.75688 10.2277 4.38377C9.85559 4.01066 9.39229 3.74214 8.88415 3.6051C8.65584 3.54353 8.52053 3.30802 8.58193 3.07907Z" fill="#F1F1F1"/>
<path fill-rule="evenodd" clip-rule="evenodd" d="M4.10981 0.859475C3.38732 0.95252 2.72332 1.30623 2.24196 1.85451C1.76019 2.40327 1.4944 3.1093 1.49436 3.84042C1.49436 6.30721 2.47157 8.67294 4.21102 10.4172C5.95046 12.1615 8.30964 13.1414 10.7696 13.1414M4.10981 0.859475C4.1398 0.856051 4.17009 0.862378 4.19623 0.877536C4.22266 0.892861 4.2434 0.916383 4.25534 0.944558L5.68929 4.29977C5.69856 4.32146 5.70234 4.34511 5.70028 4.36861C5.69823 4.39212 5.69042 4.41475 5.67753 4.43449L4.49182 6.25126C4.49159 6.25161 4.49136 6.25196 4.49113 6.25231C4.39664 6.39579 4.34078 6.56136 4.32899 6.73291C4.31716 6.90488 4.35002 7.07699 4.42436 7.23241L4.81035 7.04677L4.4258 7.23539C5.05999 8.53555 6.11096 9.58466 7.41039 10.2147L7.41341 10.2161C7.56935 10.2902 7.74184 10.3223 7.91391 10.3093C8.08555 10.2963 8.25087 10.2387 8.39368 10.1424C8.39403 10.1422 8.39438 10.1419 8.39473 10.1417L10.179 8.94856C10.1988 8.93536 10.2215 8.9273 10.2451 8.92512C10.2688 8.92295 10.2926 8.92672 10.3144 8.93609L13.6561 10.3722L13.6574 10.3728C13.6855 10.3848 13.709 10.4056 13.7242 10.4321C13.7394 10.4583 13.7457 10.4886 13.7423 10.5187C13.6495 11.2432 13.2967 11.9091 12.75 12.3918C12.2027 12.8749 11.4987 13.1414 10.7696 13.1414M5.19587 6.86013C5.7456 7.98602 6.65583 8.89464 7.78109 9.44077C7.80239 9.45068 7.82588 9.45495 7.84931 9.45317C7.87313 9.45136 7.89606 9.44337 7.91586 9.42998L7.91779 9.42867L9.70404 8.23425C9.84229 8.1418 10.0014 8.08541 10.1668 8.07017C10.3323 8.05492 10.4989 8.08132 10.6517 8.14695L13.9921 9.58257C13.9924 9.58267 13.9926 9.58276 13.9928 9.58286C14.1915 9.66765 14.3573 9.81481 14.4654 10.0022C14.5736 10.1899 14.6181 10.4077 14.5921 10.6228L14.5918 10.6257C14.4729 11.5581 14.0193 12.4151 13.3157 13.0362C12.6122 13.6573 11.707 14 10.7696 14C8.08261 14 5.50562 12.9296 3.60561 11.0243C1.7056 9.11902 0.638184 6.53489 0.638184 3.84039C0.638233 2.90043 0.979946 1.99269 1.59934 1.28719C2.21874 0.581679 3.07334 0.126759 4.00313 0.00760491L4.00596 0.00724161C4.22054 -0.0187984 4.43776 0.0258064 4.62487 0.134319C4.81176 0.242705 4.95851 0.408994 5.04306 0.60818C5.04316 0.608412 5.04326 0.608645 5.04336 0.608878L6.47624 3.96156C6.54112 4.11338 6.56756 4.27893 6.5532 4.44348C6.53884 4.60802 6.48412 4.76645 6.39392 4.90465L5.20569 6.72527C5.19255 6.74517 5.18477 6.76815 5.18313 6.79196C5.18152 6.81541 5.18591 6.83887 5.19587 6.86013Z" fill="#F1F1F1"/>
</svg>
