<svg width="12" height="14" viewBox="0 0 12 14" fill="none" xmlns="http://www.w3.org/2000/svg">
<path fill-rule="evenodd" clip-rule="evenodd" d="M5.74036 3.78947C4.79829 3.78947 4.03459 4.5553 4.03459 5.5C4.03459 6.4447 4.79829 7.21053 5.74036 7.21053C6.68243 7.21053 7.44612 6.4447 7.44612 5.5C7.44612 4.5553 6.68243 3.78947 5.74036 3.78947ZM3.24731 5.5C3.24731 4.11929 4.36349 3 5.74036 3C7.11723 3 8.2334 4.11929 8.2334 5.5C8.2334 6.88071 7.11723 8 5.74036 8C4.36349 8 3.24731 6.88071 3.24731 5.5Z" fill="#F1F1F1"/>
<path fill-rule="evenodd" clip-rule="evenodd" d="M5.74036 0.763641C4.48869 0.763641 3.28828 1.25978 2.40322 2.14291C1.51815 3.02604 1.02093 4.22382 1.02093 5.47276C1.02093 7.62621 2.22445 9.57465 3.47807 11.0132C4.1002 11.7271 4.72332 12.3023 5.19098 12.6989C5.41707 12.8907 5.60617 13.0401 5.74036 13.1428C5.87455 13.0401 6.06364 12.8907 6.28973 12.6989C6.75739 12.3023 7.38051 11.7271 8.00264 11.0132C9.25626 9.57465 10.4598 7.62621 10.4598 5.47276C10.4598 4.22382 9.96256 3.02604 9.0775 2.14291C8.19243 1.25978 6.99203 0.763641 5.74036 0.763641ZM5.74036 13.6183C5.52092 13.9311 5.52081 13.931 5.52067 13.9309L5.51924 13.9299L5.51572 13.9274L5.50326 13.9186C5.49258 13.911 5.4772 13.8999 5.45744 13.8855C5.41792 13.8567 5.36086 13.8145 5.28876 13.7596C5.1446 13.6496 4.94008 13.4884 4.69533 13.2808C4.20635 12.8661 3.55395 12.264 2.90056 11.5142C1.60313 10.0255 0.255615 7.90116 0.255615 5.47276C0.255615 4.02129 0.83347 2.62928 1.86206 1.60293C2.89065 0.576593 4.28571 0 5.74036 0C7.195 0 8.59007 0.576593 9.61865 1.60293C10.6472 2.62928 11.2251 4.02129 11.2251 5.47276C11.2251 7.90116 9.87758 10.0255 8.58015 11.5142C7.92677 12.264 7.27436 12.8661 6.78538 13.2808C6.54063 13.4884 6.33612 13.6496 6.19195 13.7596C6.11985 13.8145 6.06279 13.8567 6.02327 13.8855C6.00351 13.8999 5.98814 13.911 5.97745 13.9186L5.96499 13.9274L5.96147 13.9299L5.9604 13.9306C5.96027 13.9307 5.9598 13.9311 5.74036 13.6183ZM5.74036 13.6183L5.9598 13.9311C5.82804 14.0231 5.65243 14.0229 5.52067 13.9309L5.74036 13.6183Z" fill="#F1F1F1"/>
</svg>
