<svg width="17" height="16" viewBox="0 0 17 16" fill="none" xmlns="http://www.w3.org/2000/svg">
<path d="M8.69405 0C4.28473 0 0.709961 3.57884 0.709961 7.99318C0.709961 11.3812 2.81277 14.2759 5.78298 15.4403C5.7107 14.8088 5.65156 13.8351 5.80927 13.1443C5.95383 12.5194 6.74239 9.17077 6.74239 9.17077C6.74239 9.17077 6.50582 8.69052 6.50582 7.9866C6.50582 6.87479 7.1498 6.04587 7.9515 6.04587C8.63491 6.04587 8.96348 6.55901 8.96348 7.17083C8.96348 7.85502 8.52977 8.88131 8.29978 9.83523C8.10921 10.6313 8.70062 11.2826 9.48261 11.2826C10.902 11.2826 11.9928 9.7826 11.9928 7.62477C11.9928 5.71035 10.6194 4.37487 8.65463 4.37487C6.38097 4.37487 5.047 6.07876 5.047 7.84187C5.047 8.52606 5.30985 9.26287 5.63841 9.66418C5.70413 9.74312 5.7107 9.81549 5.69098 9.89443C5.63184 10.1444 5.49385 10.6905 5.46756 10.8023C5.4347 10.947 5.34928 10.9799 5.19814 10.9076C4.19931 10.4405 3.57503 8.98657 3.57503 7.80897C3.57503 5.28931 5.40185 2.97359 8.85176 2.97359C11.6183 2.97359 13.7736 4.94722 13.7736 7.59187C13.7736 10.3484 12.0388 12.5654 9.63375 12.5654C8.82548 12.5654 8.06321 12.1444 7.80693 11.6444C7.80693 11.6444 7.40608 13.1706 7.30752 13.5456C7.13009 14.243 6.64382 15.1114 6.31525 15.6443C7.06438 15.8745 7.85293 15.9995 8.68091 15.9995C13.0902 15.9995 16.665 12.4207 16.665 8.00633C16.6781 3.57884 13.1034 0 8.69405 0Z" fill="white"/>
</svg>
