<svg width="26" height="26" viewBox="0 0 26 26" fill="none" xmlns="http://www.w3.org/2000/svg">
<path fill-rule="evenodd" clip-rule="evenodd" d="M12.964 1.52941C6.64649 1.52941 1.52517 6.66497 1.52517 13C1.52517 19.335 6.64649 24.4706 12.964 24.4706C19.2814 24.4706 24.4027 19.335 24.4027 13C24.4027 6.66497 19.2814 1.52941 12.964 1.52941ZM0 13C0 5.8203 5.80416 0 12.964 0C20.1238 0 25.9279 5.8203 25.9279 13C25.9279 20.1797 20.1238 26 12.964 26C5.80416 26 0 20.1797 0 13Z" fill="#1A1A1A"/>
<path fill-rule="evenodd" clip-rule="evenodd" d="M10.5706 8.24735C10.8186 8.11427 11.1194 8.12886 11.3534 8.28529L17.4541 12.3637C17.6663 12.5056 17.7937 12.7443 17.7937 13C17.7937 13.2557 17.6663 13.4944 17.4541 13.6363L11.3534 17.7147C11.1194 17.8711 10.8186 17.8857 10.5706 17.7527C10.3226 17.6196 10.1678 17.3605 10.1678 17.0784V8.92157C10.1678 8.63955 10.3226 8.38042 10.5706 8.24735ZM11.693 10.3504V15.6496L15.6563 13L11.693 10.3504Z" fill="#1A1A1A"/>
</svg>
