<svg width="98" height="97" viewBox="0 0 98 97" fill="none" xmlns="http://www.w3.org/2000/svg">
<path fill-rule="evenodd" clip-rule="evenodd" d="M49.3355 5.70588C25.7665 5.70588 6.66004 24.8655 6.66004 48.5C6.66004 72.1345 25.7665 91.2941 49.3355 91.2941C72.9045 91.2941 92.011 72.1345 92.011 48.5C92.011 24.8655 72.9045 5.70588 49.3355 5.70588ZM0.969971 48.5C0.969971 21.7142 22.624 0 49.3355 0C76.0471 0 97.7011 21.7142 97.7011 48.5C97.7011 75.2858 76.0471 97 49.3355 97C22.624 97 0.969971 75.2858 0.969971 48.5Z" fill="white"/>
<path fill-rule="evenodd" clip-rule="evenodd" d="M40.4063 30.7687C41.3314 30.2723 42.4538 30.3267 43.3269 30.9103L66.0871 46.126C66.8786 46.6551 67.354 47.5459 67.354 48.4998C67.354 49.4536 66.8786 50.3444 66.0871 50.8735L43.3269 66.0892C42.4538 66.6728 41.3314 66.7272 40.4063 66.2308C39.4812 65.7343 38.9037 64.7676 38.9037 63.7154V33.2841C38.9037 32.2319 39.4812 31.2652 40.4063 30.7687ZM44.5938 38.6149V58.3847L59.38 48.4998L44.5938 38.6149Z" fill="white"/>
</svg>
