<svg width="14" height="14" viewBox="0 0 14 14" fill="none" xmlns="http://www.w3.org/2000/svg">
<path fill-rule="evenodd" clip-rule="evenodd" d="M6.17628 0.823505C3.22003 0.823505 0.823505 3.22003 0.823505 6.17628C0.823505 9.13254 3.22003 11.5291 6.17628 11.5291C9.13254 11.5291 11.5291 9.13254 11.5291 6.17628C11.5291 3.22003 9.13254 0.823505 6.17628 0.823505ZM0 6.17628C0 2.76522 2.76522 0 6.17628 0C9.58735 0 12.3526 2.76522 12.3526 6.17628C12.3526 9.58735 9.58735 12.3526 6.17628 12.3526C2.76522 12.3526 0 9.58735 0 6.17628Z" fill="white"/>
<path fill-rule="evenodd" clip-rule="evenodd" d="M9.96118 9.96185C10.122 9.80105 10.3827 9.80105 10.5435 9.96185L13.8787 13.2971C14.0395 13.4579 14.0395 13.7186 13.8787 13.8794C13.7179 14.0402 13.4572 14.0402 13.2964 13.8794L9.96118 10.5442C9.80038 10.3834 9.80038 10.1226 9.96118 9.96185Z" fill="white"/>
</svg>
