<svg width="16" height="16" viewBox="0 0 16 16" fill="none" xmlns="http://www.w3.org/2000/svg">
<path d="M15.9412 11.6384C15.8309 11.3361 15.6184 11.1727 15.3773 11.0419C15.3324 11.0174 15.2916 10.9929 15.2548 10.9766C15.1812 10.9398 15.1077 10.903 15.0341 10.8662C14.2824 10.4658 13.694 9.96738 13.2895 9.37087C13.1751 9.20335 13.073 9.02358 12.9913 8.83972C12.9545 8.74167 12.9586 8.68447 12.9831 8.63135C13.0076 8.59049 13.0403 8.55781 13.0812 8.52921C13.2119 8.44341 13.3427 8.35761 13.4325 8.30041C13.5919 8.19418 13.7226 8.11246 13.8043 8.05526C14.1108 7.83872 14.3273 7.60992 14.4621 7.35252C14.6542 6.99298 14.6787 6.57215 14.5316 6.19217C14.3273 5.65286 13.8207 5.32191 13.2037 5.32191C13.073 5.32191 12.9463 5.33417 12.8156 5.36277C12.7829 5.37094 12.7461 5.37911 12.7135 5.38729C12.7175 5.01957 12.7094 4.63143 12.6767 4.24737C12.5623 2.90316 12.0883 2.20042 11.5981 1.64067C11.2835 1.2893 10.9157 0.991045 10.5031 0.758158C9.75948 0.333243 8.91373 0.116699 7.99444 0.116699C7.07516 0.116699 6.2335 0.333243 5.48989 0.758158C5.07723 0.991045 4.70952 1.2893 4.39492 1.64067C3.90463 2.20042 3.43477 2.90725 3.31629 4.24737C3.2836 4.63143 3.27543 5.01957 3.27952 5.38729C3.24683 5.37911 3.21414 5.37094 3.17737 5.36277C3.05071 5.33417 2.91997 5.32191 2.79331 5.32191C2.17637 5.32191 1.66974 5.65694 1.46545 6.19217C1.31837 6.57215 1.34288 6.99298 1.53491 7.35252C1.66974 7.60992 1.88628 7.83872 2.19271 8.05526C2.27443 8.11246 2.40108 8.19418 2.56451 8.30041C2.65031 8.35761 2.77697 8.43932 2.90363 8.52104C2.94857 8.54964 2.98534 8.58641 3.01394 8.63135C3.03846 8.68447 3.04254 8.74167 3.00169 8.84789C2.91997 9.02767 2.82191 9.20335 2.70751 9.36678C2.3112 9.94696 1.7392 10.4413 1.01194 10.8376C0.62788 11.0419 0.227479 11.1768 0.0558781 11.6384C-0.0707794 11.9857 0.0109351 12.378 0.333707 12.713C0.452194 12.8356 0.591108 12.9418 0.74228 13.0235C1.05688 13.1951 1.39191 13.3299 1.74328 13.4239C1.81683 13.4443 1.8822 13.4729 1.94348 13.5138C2.06197 13.6159 2.04563 13.7712 2.20088 14C2.27851 14.1185 2.38066 14.2206 2.49506 14.3023C2.826 14.5311 3.1978 14.5434 3.59003 14.5597C3.94549 14.572 4.34589 14.5883 4.80758 14.7395C4.99961 14.8008 5.19572 14.9234 5.42452 15.0664C5.97609 15.4055 6.72787 15.8672 7.99036 15.8672C9.25285 15.8672 10.0087 15.4014 10.5644 15.0623C10.7932 14.9234 10.9893 14.8008 11.1731 14.7395C11.6307 14.5883 12.0352 14.572 12.3907 14.5597C12.7829 14.5434 13.1547 14.5311 13.4857 14.3023C13.6246 14.2043 13.739 14.0817 13.8207 13.9346C13.9351 13.7426 13.931 13.6078 14.0372 13.5138C14.0944 13.4729 14.1598 13.4443 14.2252 13.428C14.5765 13.334 14.9197 13.1992 15.2384 13.0235C15.3978 12.9377 15.5449 12.8233 15.6674 12.6885L15.6715 12.6844C15.9902 12.3575 16.0678 11.9735 15.9412 11.6384ZM14.8217 12.239C14.1394 12.6149 13.6818 12.5741 13.3304 12.8029C13.0281 12.9949 13.2078 13.4117 12.9913 13.5628C12.7216 13.7467 11.929 13.5506 10.9076 13.8897C10.0618 14.1675 9.52659 14.9724 8.0067 14.9724C6.48681 14.9724 5.96384 14.1716 5.10584 13.8897C4.0844 13.5506 3.29177 13.7508 3.02212 13.5628C2.80557 13.4117 2.98126 12.9949 2.683 12.8029C2.32754 12.5741 1.87403 12.6149 1.19171 12.239C0.754537 11.998 1.00377 11.8509 1.14677 11.7814C3.62272 10.5843 4.01903 8.73349 4.03537 8.59458C4.0558 8.42706 4.08032 8.29632 3.89646 8.12881C3.72077 7.96538 2.93631 7.47918 2.71569 7.328C2.35614 7.07469 2.1968 6.82546 2.31528 6.51495C2.397 6.30249 2.5972 6.22077 2.80557 6.22077C2.87094 6.22077 2.93631 6.22894 3.00169 6.2412C3.398 6.327 3.78206 6.52312 4.00269 6.58032C4.03129 6.58849 4.0558 6.59257 4.0844 6.59257C4.20289 6.59257 4.24375 6.53129 4.23558 6.39646C4.21106 5.96337 4.14978 5.12171 4.21923 4.33317C4.3132 3.25045 4.66049 2.71113 5.07723 2.23719C5.27744 2.00839 6.21307 1.01964 8.0067 1.01964C9.80033 1.01964 10.736 2.0043 10.9362 2.23311C11.3529 2.70705 11.7002 3.24636 11.7942 4.32908C11.8636 5.11763 11.8023 5.95929 11.7737 6.39237C11.7656 6.53537 11.8064 6.58849 11.9249 6.58849C11.9535 6.58849 11.978 6.5844 12.0066 6.57623C12.2273 6.52312 12.6113 6.32292 13.0076 6.23712C13.073 6.22077 13.1384 6.21669 13.2037 6.21669C13.4121 6.21669 13.6123 6.2984 13.694 6.51086C13.8125 6.82138 13.6532 7.0706 13.2936 7.32392C13.0771 7.47509 12.2926 7.96129 12.1129 8.12472C11.929 8.29224 11.9535 8.42298 11.9739 8.59049C11.9903 8.72941 12.3866 10.5802 14.8625 11.7774C15.0096 11.8468 15.2548 11.998 14.8217 12.239Z" fill="white"/>
</svg>
