<svg width="89" height="14" viewBox="0 0 89 14" fill="none" xmlns="http://www.w3.org/2000/svg">
<path d="M7 0L8.5716 4.83688H13.6574L9.5429 7.82624L11.1145 12.6631L7 9.67376L2.8855 12.6631L4.4571 7.82624L0.342604 4.83688H5.4284L7 0Z" fill="#F1F1F1"/>
<path d="M25.6667 0L27.2383 4.83688H32.3241L28.2096 7.82624L29.7812 12.6631L25.6667 9.67376L21.5523 12.6631L23.1238 7.82624L19.0094 4.83688H24.0951L25.6667 0Z" fill="#F1F1F1"/>
<path d="M44.3333 0L45.9049 4.83688H50.9906L46.8762 7.82624L48.4477 12.6631L44.3333 9.67376L40.2188 12.6631L41.7904 7.82624L37.6759 4.83688H42.7617L44.3333 0Z" fill="#F1F1F1"/>
<path d="M63 0L64.5716 4.83688H69.6574L65.5429 7.82624L67.1145 12.6631L63 9.67376L58.8855 12.6631L60.4571 7.82624L56.3426 4.83688H61.4284L63 0Z" fill="#F1F1F1"/>
<path d="M81.6667 0L83.2383 4.83688H88.3241L84.2096 7.82624L85.7812 12.6631L81.6667 9.67376L77.5523 12.6631L79.1238 7.82624L75.0094 4.83688H80.0951L81.6667 0Z" fill="#F1F1F1"/>
</svg>
