<svg width="16" height="14" viewBox="0 0 16 14" fill="none" xmlns="http://www.w3.org/2000/svg">
<path d="M5.03083 13.5001C11.0685 13.5001 14.3708 8.49792 14.3708 4.1601C14.3708 4.01802 14.3708 3.87659 14.3612 3.73579C15.0036 3.27111 15.5582 2.69574 15.9989 2.03663C15.3998 2.30222 14.7643 2.47632 14.1135 2.5531C14.7988 2.1429 15.3117 1.49764 15.5567 0.737459C14.9123 1.11986 14.2074 1.38933 13.4722 1.53424C12.9773 1.00797 12.3227 0.659488 11.6098 0.542719C10.8969 0.425951 10.1653 0.547406 9.52837 0.888291C8.89141 1.22918 8.38456 1.77048 8.08625 2.42845C7.78793 3.08642 7.71479 3.82437 7.87813 4.52809C6.57305 4.46263 5.29632 4.12346 4.13081 3.5326C2.9653 2.94174 1.93707 2.1124 1.11284 1.09841C0.693071 1.82106 0.564503 2.67653 0.753317 3.49064C0.942131 4.30475 1.43413 5.01629 2.12914 5.48039C1.60672 5.46508 1.09567 5.32415 0.639253 5.06952V5.11112C0.639461 5.869 0.901815 6.60348 1.38182 7.18998C1.86182 7.77649 2.52992 8.1789 3.27279 8.32897C2.78953 8.46079 2.28247 8.48006 1.79059 8.38529C2.00043 9.03749 2.40883 9.60782 2.95869 10.0165C3.50855 10.4253 4.17239 10.652 4.8574 10.6649C4.1768 11.1999 3.3974 11.5954 2.56379 11.8289C1.73018 12.0624 0.858725 12.1292 -0.000732422 12.0255C1.50046 12.9888 3.24714 13.4998 5.03083 13.4975" fill="white"/>
</svg>
